inDegrees=yes
name=ik_S53_A10_T02
DataType=double
version=3
OpenSimVersion=4.3-2021-08-27-4bc7ad9
endheader
time	pelvis_tilt	pelvis_list	pelvis_rotation	pelvis_tx	pelvis_ty	pelvis_tz	hip_flexion_r	hip_adduction_r	hip_rotation_r	knee_angle_r	knee_angle_r_beta	ankle_angle_r	subtalar_angle_r	mtp_angle_r	hip_flexion_l	hip_adduction_l	hip_rotation_l	knee_angle_l	knee_angle_l_beta	ankle_angle_l	subtalar_angle_l	mtp_angle_l	lumbar_extension	lumbar_bending	lumbar_rotation	arm_flex_r	arm_add_r	arm_rot_r	elbow_flex_r	pro_sup_r	wrist_flex_r	wrist_dev_r	arm_flex_l	arm_add_l	arm_rot_l	elbow_flex_l	pro_sup_l	wrist_flex_l	wrist_dev_l
5.23333333333332	1.440286354704696	2.555406273473877	46.24994368525498	0	0.9399999999999999	0	44.80405949345175	-10.00444196584165	-10.03362198378014	55.00571517900108	0.9600308372877909	0	0	0	44.80405949345175	-10.00444196584165	-10.03362198378014	55.00571517900108	0.9600308372877909	0	0	0	3.313792480866995	1.60356667574989	6.292972217728869	69.51550591513391	1.98066084219694	-11.34090979935176	32.36499126207854	105.1937189801959	0	0	64.28885238290562	-25.74392343804178	16.71265457635069	52.94419329819728	49.04628030932175	0	0
5.249999999999987	1.405673845329602	2.505420758662693	46.08703245294168	0	0.9399999999999999	0	44.80425376955829	-10.00442665686844	-10.03354749163523	55.00571147176381	0.9600307725842944	0	0	0	44.80425376955829	-10.00442665686844	-10.03354749163523	55.00571147176381	0.9600307725842944	0	0	0	3.251120024567073	1.595977351381578	6.319783546344762	68.92607123871761	2.394478797990176	-10.85445314848405	33.72158907297814	104.7246358345595	0	0	63.4863140609062	-25.80675722857101	15.63541435424967	55.79019907020316	48.77844780586263	0	0
5.266666666666653	1.368722379785326	2.464901631600972	46.00559662696642	0	0.9399999999999999	0	44.80445843600362	-10.00441056478002	-10.03346910573262	55.00570756412845	0.9600307043831914	0	0	0	44.80445843600362	-10.00441056478002	-10.03346910573262	55.00570756412845	0.9600307043831914	0	0	0	3.19628931996192	1.593025925419929	6.292117965356064	69.01776734706549	2.82693611008967	-10.57349776210462	34.42022878178809	103.7659596519164	0	0	62.45232890869504	-25.87008941535032	14.40847574895207	58.64723880443745	48.72817996140243	0	0
5.28333333333332	1.297638697850759	2.352212660761986	46.00155709023979	0	0.9399999999999999	0	44.80470294158266	-10.00439161440338	-10.03337623019273	55.00570286285402	0.9600306223304736	0	0	0	44.80470294158266	-10.00439161440338	-10.03337623019273	55.00570286285402	0.9600306223304736	0	0	0	3.068445196314039	1.559256906119595	6.194187894593074	67.60136388140833	3.376449697544119	-10.46546918967486	36.51943611654821	102.6754243823423	0	0	61.53216917941325	-25.86401660204306	13.29932935783702	61.31589397980359	48.74678458824577	0	0
5.299999999999986	1.239081984199345	2.247420887606857	45.8454894585509	0	0.9399999999999999	0	44.80488352086513	-10.00437762095042	-10.03330763960951	55.00569939125682	0.9600305617396721	0	0	0	44.80488352086513	-10.00437762095042	-10.03330763960951	55.00569939125682	0.9600305617396721	0	0	0	2.950426797144551	1.534109705294122	6.229669516301896	66.9223497928362	3.972399463368054	-10.53037278396368	37.77395511952973	101.7984117565776	0	0	60.47331602888321	-25.7162432291933	12.22982509640423	63.93259833320782	48.62812696890627	0	0
5.316666666666653	1.219096815396678	2.238247232402479	45.82124883289211	0	0.9399999999999999	0	44.80501600994398	-10.00436726473282	-10.03325704552899	55.00569685958749	0.9600305175537067	0	0	0	44.80501600994398	-10.00436726473282	-10.03325704552899	55.00569685958749	0.9600305175537067	0	0	0	2.932787470471106	1.537974876294524	6.179141041880045	65.98945486553021	4.258384846713892	-10.8052908653369	38.68847927662519	102.2534717708714	0	0	59.03062091030463	-25.31565763363666	11.10609154076538	64.7800787278628	49.70034886746141	0	0
5.33333333333332	1.180284147679973	2.206790718682135	45.61325343335689	0	0.9399999999999999	0	44.80520403507145	-10.00435267629661	-10.03318554562152	55.00569325439843	0.9600304546312874	0	0	0	44.80520403507145	-10.00435267629661	-10.03318554562152	55.00569325439843	0.9600304546312874	0	0	0	2.883029980936641	1.545113868915339	6.221404206856229	64.79404057910877	4.933628164764199	-10.72658784457925	40.45176192275444	101.0682869910022	0	0	57.44354977666484	-25.08830337116082	10.01503816024383	67.61569820761102	49.1421938252885	0	0
5.349999999999986	1.097715973607896	2.081520945892881	45.31879195516344	0	0.9399999999999999	0	44.80528903752109	-10.00434606291846	-10.03315316743252	55.00569162749935	0.9600304262365419	0	0	0	44.80528903752109	-10.00434606291846	-10.03315316743252	55.00569162749935	0.9600304262365419	0	0	0	2.730372741343964	1.534370429620041	6.428335295438505	63.64777448244097	5.277302351811525	-11.01858132746016	41.83396929589997	101.5655324240111	0	0	57.74166800333229	-25.24354398524334	10.24930238737292	69.26209060640049	47.24461697204035	0	0
5.366666666666653	1.059403756666319	2.018462942619879	45.1407250624589	0	0.9399999999999999	0	44.8053683816692	-10.00433987706885	-10.03312289819373	55.0056901131167	0.9600303998055786	0	0	0	44.8053683816692	-10.00433987706885	-10.03312289819373	55.0056901131167	0.9600303998055786	0	0	0	2.657844475937161	1.518438580576209	6.442119864978852	63.78571262774167	5.440857672779575	-10.95538728424603	41.82823901377932	101.5632355005718	0	0	57.84640881881987	-25.45040395849491	10.34751110004545	70.09238077410637	46.26292886058666	0	0
5.38333333333332	1.059586908665896	2.032835425371583	45.73760260682629	0	0.9399999999999999	0	44.80986631347562	-10.00410832441273	-10.03179555318327	55.00557637600797	0.9600284147185495	0	0	0	44.80986631347562	-10.00410832441273	-10.03179555318327	55.00557637600797	0.9600284147185495	0	0	0	2.660548009671086	1.469609398197615	5.831238142312048	62.2427366720631	6.641741832454871	-10.46144904297268	44.47953066297632	96.44990609269456	0	0	55.93738072009102	-25.12237564288803	9.425382623976965	72.81038411862679	45.4021344570663	0	0
5.399999999999986	1.052145633867366	2.012832488620982	45.47175745518386	0	0.9399999999999999	0	44.80998012157323	-10.00409973715404	-10.03175291640435	55.00557419773959	0.9600283767005944	0	0	0	44.80998012157323	-10.00409973715404	-10.03175291640435	55.00557419773959	0.9600283767005944	0	0	0	2.637537676949981	1.47279509153302	6.000334311787728	62.28382209314724	6.74198654191743	-10.41943302172512	44.46369014207779	96.45751119130809	0	0	53.84469441487666	-24.90555847688443	8.691936155110156	75.45438883565924	44.55376937062546	0	0
5.416666666666653	0.9616130036346096	1.898053065557398	46.06008354577768	0	0.9399999999999999	0	44.81290986207944	-10.00395062518156	-10.03089359294868	55.005500593868	0.9600270920706928	0	0	0	44.81290986207944	-10.00395062518156	-10.03089359294868	55.005500593868	0.9600270920706928	0	0	0	2.484223568323593	1.401259153958435	5.349519194900299	60.94498581141936	8.347100839637735	-9.119883243050635	47.08089395731415	89.92527635205296	0	0	54.06171508969408	-24.85765515640422	9.417441212183169	76.15906341147091	43.30675677998877	0	0
5.433333333333319	0.8846695568688594	1.796197957073405	46.46523070264789	0	0.9399999999999999	0	44.81622889232628	-10.00378830847243	-10.02994217258774	55.00541610502842	0.960025617462261	0	0	0	44.81622889232628	-10.00378830847243	-10.02994217258774	55.00541610502842	0.960025617462261	0	0	0	2.359787281026658	1.337390671495232	4.881433274323169	57.77780973327742	9.013322436003385	-7.842034183018027	51.10325656476405	88.54184780977091	0	0	50.67322732072589	-23.62147290207299	7.896800034777172	78.16090333739885	45.76887308542167	0	0
